<?xml version="1.0" encoding="UTF-8" standalone="no"?>
<!-- Created with Inkscape (http://www.inkscape.org/) -->

<svg
   xmlns:dc="http://purl.org/dc/elements/1.1/"
   xmlns:cc="http://creativecommons.org/ns#"
   xmlns:rdf="http://www.w3.org/1999/02/22-rdf-syntax-ns#"
   xmlns:svg="http://www.w3.org/2000/svg"
   xmlns="http://www.w3.org/2000/svg"
   xmlns:sodipodi="http://sodipodi.sourceforge.net/DTD/sodipodi-0.dtd"
   xmlns:inkscape="http://www.inkscape.org/namespaces/inkscape"
   id="svg3356"
   version="1.1"
   inkscape:version="0.91 r13725"
   xml:space="preserve"
   width="543.33752"
   height="69.875"
   viewBox="0 0 543.33752 69.875"
   sodipodi:docname="BioStudies_Updated.svg"
   inkscape:export-filename="C:\Users\awais\Desktop\path3396.png"
   inkscape:export-xdpi="90"
   inkscape:export-ydpi="90"><metadata
     id="metadata3362"><rdf:RDF><cc:Work
         rdf:about=""><dc:format>image/svg+xml</dc:format><dc:type
           rdf:resource="http://purl.org/dc/dcmitype/StillImage" /><dc:title></dc:title></cc:Work></rdf:RDF></metadata><defs
     id="defs3360"><clipPath
       clipPathUnits="userSpaceOnUse"
       id="clipPath3372"><path
         d="M 0,558.965 0,0 l 4346.67,0 0,558.965 -4346.67,0 z"
         id="path3374"
         inkscape:connector-curvature="0" /></clipPath></defs><sodipodi:namedview
     pagecolor="#ffffff"
     bordercolor="#666666"
     borderopacity="1"
     objecttolerance="10"
     gridtolerance="10"
     guidetolerance="10"
     inkscape:pageopacity="0"
     inkscape:pageshadow="2"
     inkscape:window-width="1536"
     inkscape:window-height="811"
     id="namedview3358"
     showgrid="false"
     inkscape:zoom="1.790745"
     inkscape:cx="243.89754"
     inkscape:cy="79.224956"
     inkscape:window-x="-8"
     inkscape:window-y="-8"
     inkscape:window-maximized="1"
     inkscape:current-layer="g3364" /><g
     id="g3364"
     inkscape:groupmode="layer"
     inkscape:label="ink_ext_XXXXXX"
     transform="matrix(1.25,0,0,-1.25,0,69.875)"><g
       id="g3366"
       transform="scale(0.1,0.1)"><g
         id="g3368"><g
           id="g3370"
           clip-path="url(#clipPath3372)"><path
             d="m 1208.1,64.7461 c 64.12,0 84.66,18.0547 84.66,68.4839 0,39.219 -21.79,64.122 -85.91,64.122 l -41.71,0 0,-132.6059 42.96,0 z m -1.25,184.9019 c 55.41,0 72.84,23.661 72.84,62.254 0,36.731 -14.94,54.161 -71.59,54.161 l -42.96,0 0,-116.415 41.71,0 z m -199.22,-184.9019 56.03,0 0,301.3169 -56.03,0 0,54.16 210.43,0 c 133.22,0 163.73,-50.418 163.73,-98.985 0,-41.082 -28.02,-81.55 -110.2,-94.004 l 0,-4.355 c 85.92,-9.336 125.14,-44.824 125.14,-98.984 0,-62.2661 -42.96,-113.3091 -174.94,-113.3091 l -214.16,0 0,54.1602"
             style="fill:#ee1c25;fill-opacity:1;fill-rule:nonzero;stroke:none"
             id="path3376"
             inkscape:connector-curvature="0" /><path
             d="m 1466.41,396.57 c 0,30.508 22.41,54.16 55.41,54.16 33.62,0 56.03,-22.41 56.03,-52.292 0,-30.5 -23.04,-53.536 -56.03,-53.536 -33.62,0 -55.41,21.161 -55.41,51.668 z m -32.99,-334.3161 47.31,0 0,188.0191 -47.31,0 0,51.668 138.2,0 0,-239.6871 47.32,0 0,-51.668 -185.52,0 0,51.668"
             style="fill:#ee1c25;fill-opacity:1;fill-rule:nonzero;stroke:none"
             id="path3378"
             inkscape:connector-curvature="0" /><path
             d="m 1861.71,156.883 c 0,78.449 -19.31,109.57 -59.77,109.57 -39.23,0 -56.03,-31.746 -56.03,-110.195 0,-79.0627 19.92,-109.5705 59.76,-109.5705 39.85,0 56.04,31.7578 56.04,110.1955 z M 1646.3,155.02 c 0,89.648 67.86,153.769 158.13,153.769 92.14,0 156.89,-61.008 156.89,-150.656 0,-90.2736 -67.86,-153.76972 -157.51,-153.76972 -92.77,0 -157.51,60.38282 -157.51,150.65672"
             style="fill:#ee1c25;fill-opacity:1;fill-rule:nonzero;stroke:none"
             id="path3380"
             inkscape:connector-curvature="0" /><path
             d="m 2007.34,153.777 54.79,0 c 26.77,-69.7262 61,-101.484 127,-101.484 44.2,0 69.1,21.7968 69.1,54.16 0,37.981 -41.71,47.324 -103.96,62.883 -67.24,16.191 -143.2,39.227 -143.2,130.742 0,75.945 64.14,130.106 143.82,130.106 44.83,0 83.42,-16.805 104.59,-45.438 l 13.07,44.199 54.78,0 0,-145.675 -54.78,0 c -26.14,67.851 -56.65,95.246 -109.57,95.246 -41.71,0 -64.12,-24.278 -64.12,-52.297 0,-41.082 45.45,-50.426 107.08,-65.371 66.61,-16.18 140.08,-37.969 140.08,-126.993 0,-77.8198 -61.64,-133.23 -150.67,-133.23 -51.04,0 -95.87,21.1602 -118.9,49.8047 l -14.95,-48.56642 -54.16,0 0,151.91372"
             style="fill:#58585a;fill-opacity:1;fill-rule:nonzero;stroke:none"
             id="path3382"
             inkscape:connector-curvature="0" /><path
             d="m 2509.08,377.898 0,-79.07 93.38,0 0,-48.555 -93.38,0 0,-146.925 c 0,-26.7777 9.34,-41.7191 30.5,-41.7191 18.68,0 27.4,14.3281 38.6,54.7891 l 37.36,-10.578 C 2601.85,34.8633 2571.34,4.36328 2512.81,4.36328 c -63.49,0 -94.63,32.98832 -94.63,99.60972 l 0,146.3 -51.67,0 0,48.555 53.54,0 0,68.485 89.03,10.585"
             style="fill:#58585a;fill-opacity:1;fill-rule:nonzero;stroke:none"
             id="path3384"
             inkscape:connector-curvature="0" /><path
             d="m 2669.68,107.078 0,143.195 -42.34,0 0,51.668 133.24,0 0,-182.41 c 0,-19.297 3.73,-34.238 13.06,-44.199 5.61,-5.6054 14.94,-9.9609 28.02,-9.9609 28.02,0 54.79,29.2578 54.79,71.5899 l 0,113.312 -42.96,0 0,51.668 133.84,0 0,-239.6871 42.35,0 0,-51.668 -127.63,0 0,76.5704 C 2841.5,38.6016 2809.76,4.98047 2756.84,4.98047 c -61.63,0 -87.16,42.33203 -87.16,102.09753"
             style="fill:#58585a;fill-opacity:1;fill-rule:nonzero;stroke:none"
             id="path3386"
             inkscape:connector-curvature="0" /><path
             d="m 3231.18,156.258 c 0,54.785 -17.42,97.746 -59.14,97.746 -37.97,0 -55.41,-34.863 -55.41,-99.609 0,-62.8833 18.68,-96.4966 55.41,-96.4966 36.11,0 59.14,41.0938 59.14,98.3596 z M 3058.74,34.8633 c -26.78,26.7656 -39.84,70.3517 -39.84,120.1567 0,52.293 15.56,96.492 42.33,122.648 19.3,19.918 45.44,31.121 76.57,31.121 41.71,0 69.73,-20.535 87.79,-49.805 l 0,128.25 -44.83,0 0,52.911 135.71,0 0,-377.8911 41.72,0 0,-51.668 -127.01,0 0,61.0039 c -17.42,-40.457 -49.8,-67.22652 -97.11,-67.22652 -31.76,0 -56.66,11.82812 -75.33,30.50002"
             style="fill:#58585a;fill-opacity:1;fill-rule:nonzero;stroke:none"
             id="path3388"
             inkscape:connector-curvature="0" /><path
             d="m 3422.89,396.57 c 0,30.508 22.41,54.16 55.41,54.16 33.61,0 56.02,-22.41 56.02,-52.292 0,-30.5 -23.03,-53.536 -56.02,-53.536 -33.63,0 -55.41,21.161 -55.41,51.668 z m -33,-334.3161 47.31,0 0,188.0191 -47.31,0 0,51.668 138.21,0 0,-239.6871 47.32,0 0,-51.668 -185.53,0 0,51.668"
             style="fill:#58585a;fill-opacity:1;fill-rule:nonzero;stroke:none"
             id="path3390"
             inkscape:connector-curvature="0" /><path
             d="m 3698.03,183.66 108.95,0 c -3.12,59.141 -19.3,82.793 -52.92,82.793 -32.38,0 -52.3,-20.547 -56.03,-82.793 z m -0.62,-39.226 c 3.73,-67.8637 31.13,-90.266 77.19,-90.266 34.87,0 56.65,14.3164 69.73,51.047 l 48.57,0 C 3881.68,44.2109 3840.59,4.36328 3759.04,4.36328 c -97.12,0 -156.26,59.76562 -156.26,149.41372 0,88.399 65.37,155.012 153.14,155.012 98.37,0 144.44,-69.726 140.08,-164.355 l -198.59,0"
             style="fill:#58585a;fill-opacity:1;fill-rule:nonzero;stroke:none"
             id="path3392"
             inkscape:connector-curvature="0" /><path
             d="m 3935.82,112.059 47.93,0 c 25.53,-39.2192 61.02,-65.9848 96.5,-65.9848 26.15,0 37.98,11.8242 37.98,29.8828 0,22.4102 -16.19,31.121 -74.08,46.063 -69.73,18.058 -103.97,40.468 -103.97,92.765 0,51.043 41.08,94.004 105.83,94.004 37.98,0 65.37,-14.316 83.43,-36.105 l 9.96,34.863 48.55,0 0,-99.609 -47.94,0 c -22.41,34.863 -52.29,59.14 -83.41,59.14 -24.29,0 -36.73,-11.211 -36.73,-28.015 0,-21.165 16.8,-29.258 72.21,-43.575 63.5,-16.808 106.46,-37.355 106.46,-95.254 0,-50.4293 -39.22,-95.87072 -110.2,-95.87072 -45.44,0 -75.95,18.67192 -94.62,39.84762 l -9.97,-39.23043 -47.93,0 0,107.07853"
             style="fill:#58585a;fill-opacity:1;fill-rule:nonzero;stroke:none"
             id="path3394"
             inkscape:connector-curvature="0" /><path
             d="m 4235.23,54.7852 c 0,31.1328 24.29,55.4098 56.03,55.4098 31.13,0 55.41,-24.277 55.41,-54.7848 C 4346.67,24.9023 4322.39,0 4290.64,0 c -31.12,0 -55.41,24.2852 -55.41,54.7852"
             style="fill:#58585a;fill-opacity:1;fill-rule:nonzero;stroke:none"
             id="path3396"
             inkscape:connector-curvature="0" /><g
             id="g4215"><path
               inkscape:connector-curvature="0"
               id="path3398"
               style="fill:#22aae2;fill-opacity:1;fill-rule:nonzero;stroke:none"
               d="m 173.199,334.18 c -19.969,-4.196 -38.617,-13.551 -54.004,-27.504 -1.035,-0.938 -1.968,-1.985 -2.968,-2.961 120.503,3.449 524.433,21.32 763.945,108.855 l -0.309,29 C 568.133,338.48 200.109,335.375 173.199,334.18" /><path
               inkscape:connector-curvature="0"
               id="path3400"
               style="fill:#22aae2;fill-opacity:1;fill-rule:nonzero;stroke:none"
               d="m 88.6992,261.238 c 68.7418,1.121 578.9418,11.946 790.5548,89.285 l -0.313,29.528 C 665.594,305.605 211.793,291.984 103.977,289.766 c -3.7,-5.032 -7.0239,-10.352 -9.8168,-15.879 -2.2735,-4.5 -4,-8.633 -5.461,-12.649" /><path
               inkscape:connector-curvature="0"
               id="path3402"
               style="fill:#22aae2;fill-opacity:1;fill-rule:nonzero;stroke:none"
               d="m 82.2734,225.398 c -0.0078,-0.609 -0.0312,-1.218 -0.0703,-1.843 l 0,-4.235 c 35.4919,0.446 630.8709,8.743 796.1249,69.137 l -0.308,29.106 C 704.922,257.168 141.367,248.246 84.8633,247.5 c -0.4063,-2.008 -0.8242,-3.98 -1.1719,-6.195 -0.9062,-5.828 -1.3711,-11.032 -1.418,-15.907" /><path
               inkscape:connector-curvature="0"
               id="path3404"
               style="fill:#22aae2;fill-opacity:1;fill-rule:nonzero;stroke:none"
               d="m 83.6914,189.035 c 0.6641,-4.242 1.4844,-7.965 2.3867,-11.488 66.6949,0.836 683.9219,9.59 791.3239,48.844 l -0.304,28.687 C 759.742,214.129 125.746,206.055 82.25,205.547 c 0.0039,-0.199 0.0195,-0.399 0.0234,-0.598 0.0469,-4.879 0.5118,-10.082 1.418,-15.914" /><path
               inkscape:connector-curvature="0"
               id="path3406"
               style="fill:#22aae2;fill-opacity:1;fill-rule:nonzero;stroke:none"
               d="m 104.582,139.695 c 0.961,-1.285 2.055,-2.468 3.074,-3.715 135.149,1.688 718.645,10.008 768.821,28.344 l -0.301,28.27 C 819.848,172.938 183.52,164.809 90.7813,163.727 c 1.0156,-2.352 2.1015,-4.747 3.375,-7.274 2.9531,-5.844 6.4607,-11.48 10.4257,-16.758" /><path
               inkscape:connector-curvature="0"
               id="path3408"
               style="fill:#22aae2;fill-opacity:1;fill-rule:nonzero;stroke:none"
               d="m 875.547,102.258 -0.293,27.851 -754.191,-7.988 c 16.925,-14.719 37.531,-24.0702 59.464,-27.2226 l 695.02,7.3596" /></g><path
             d="m 80.1211,177.477 c 0,0 2.1289,0.023 5.957,0.07 -0.9023,3.523 -1.7226,7.246 -2.3867,11.488 -0.9062,5.832 -1.3711,11.035 -1.418,15.914 -0.0039,0.199 -0.0195,0.399 -0.0234,0.598 -1.5508,-0.016 -2.4258,-0.027 -2.4258,-0.027"
             style="fill:#ffffff;fill-opacity:1;fill-rule:nonzero;stroke:none"
             id="path3410"
             inkscape:connector-curvature="0" /><path
             d="m 53.9258,225.672 c 5.039,115.308 108.0232,139.414 143.0822,139.414 0,0 324.043,-6.191 732.336,130.008 l 0,63.871 C 498.965,405.98 197.008,418.953 197.008,418.953 126.832,418.953 65.2773,382.402 30.3711,327.672 27.1797,322.664 24.2031,317.523 21.4727,312.223 7.84766,285.781 0,255.965 0,224.316 l 0,-18.293 c 0,-31.648 7.84766,-61.464 21.4727,-87.906 2.7304,-5.301 5.7031,-10.437 8.8984,-15.445 C 65.2773,47.9375 126.832,11.3867 197.008,11.3867 l 732.336,0 0,53.8672 -732.336,0 c -32.535,0 -138.8752,23.2266 -143.0822,139.4181 -0.0156,0.457 -0.0703,0.894 -0.0703,1.351 l 0,18.293 c 0,0.457 0.0508,0.899 0.0703,1.356"
             style="fill:#ee1c25;fill-opacity:1;fill-rule:nonzero;stroke:none"
             id="path3412"
             inkscape:connector-curvature="0" /></g></g></g></g></svg>