<?xml version="1.0" encoding="UTF-8" standalone="no"?>
<!-- Created with Inkscape (http://www.inkscape.org/) -->

<svg
   xmlns:dc="http://purl.org/dc/elements/1.1/"
   xmlns:cc="http://creativecommons.org/ns#"
   xmlns:rdf="http://www.w3.org/1999/02/22-rdf-syntax-ns#"
   xmlns:svg="http://www.w3.org/2000/svg"
   xmlns="http://www.w3.org/2000/svg"
   xmlns:sodipodi="http://sodipodi.sourceforge.net/DTD/sodipodi-0.dtd"
   xmlns:inkscape="http://www.inkscape.org/namespaces/inkscape"
   width="300"
   height="300"
   viewBox="0 0 300 300"
   id="svg2"
   version="1.1"
   inkscape:version="0.91 r13725"
   sodipodi:docname="icon.svg"
   inkscape:export-filename="C:\dev\FrontEndUI\webapp\resources\assets\icon.png"
   inkscape:export-xdpi="90"
   inkscape:export-ydpi="90">
  <defs
     id="defs4" />
  <sodipodi:namedview
     id="base"
     pagecolor="#6ba8c5"
     bordercolor="#666666"
     borderopacity="1.0"
     inkscape:pageopacity="1"
     inkscape:pageshadow="2"
     inkscape:zoom="1"
     inkscape:cx="118.05704"
     inkscape:cy="81.977051"
     inkscape:document-units="px"
     inkscape:current-layer="layer4"
     showgrid="false"
     units="px"
     inkscape:snap-grids="true"
     inkscape:snap-to-guides="true"
     inkscape:snap-page="true"
     inkscape:window-width="1920"
     inkscape:window-height="1028"
     inkscape:window-x="-8"
     inkscape:window-y="-8"
     inkscape:window-maximized="1"
     inkscape:snap-nodes="false"
     showguides="true"
     inkscape:guide-bbox="true"
     fit-margin-top="0"
     fit-margin-left="0"
     fit-margin-right="0"
     fit-margin-bottom="0"
     showborder="true"
     borderlayer="false"
     width="500px"
     inkscape:snap-object-midpoints="true"
     inkscape:snap-bbox="true"
     inkscape:snap-others="false" />
  <metadata
     id="metadata7">
    <rdf:RDF>
      <cc:Work
         rdf:about="">
        <dc:format>image/svg+xml</dc:format>
        <dc:type
           rdf:resource="http://purl.org/dc/dcmitype/StillImage" />
        <dc:title></dc:title>
      </cc:Work>
    </rdf:RDF>
  </metadata>
  <g
     inkscape:groupmode="layer"
     id="layer2"
     inkscape:label="bg"
     style="display:inline;opacity:1">
    <text
       xml:space="preserve"
       style="font-style:normal;font-weight:normal;font-size:80px;line-height:125%;font-family:sans-serif;letter-spacing:0px;word-spacing:0px;opacity:0.14080045;fill:#ececec;fill-opacity:1;stroke:none;stroke-width:1px;stroke-linecap:butt;stroke-linejoin:miter;stroke-opacity:1"
       x="225"
       y="114"
       id="text3451"
       sodipodi:linespacing="125%"><tspan
         sodipodi:role="line"
         id="tspan3453"
         x="225"
         y="114"
         style="font-style:normal;font-variant:normal;font-weight:normal;font-stretch:normal;font-size:80px;font-family:EBI-Conceptual;-inkscape-font-specification:EBI-Conceptual;fill:#ececec">b</tspan></text>
    <text
       xml:space="preserve"
       style="font-style:normal;font-weight:normal;font-size:180px;line-height:125%;font-family:sans-serif;letter-spacing:0px;word-spacing:0px;opacity:0.07999998;fill:#ececec;fill-opacity:1;stroke:none;stroke-width:1px;stroke-linecap:butt;stroke-linejoin:miter;stroke-opacity:1"
       x="-31.90625"
       y="167.56976"
       id="text3451-0"
       sodipodi:linespacing="125%"
       inkscape:export-xdpi="90"
       inkscape:export-ydpi="90"><tspan
         sodipodi:role="line"
         id="tspan3453-5"
         x="-31.90625"
         y="167.56976"
         style="font-style:normal;font-variant:normal;font-weight:normal;font-stretch:normal;font-size:180px;font-family:EBI-Conceptual;-inkscape-font-specification:EBI-Conceptual;fill:#ececec">s</tspan></text>
    <text
       xml:space="preserve"
       style="font-style:normal;font-weight:normal;font-size:275px;line-height:125%;font-family:sans-serif;letter-spacing:0px;word-spacing:0px;opacity:0.08;fill:#000000;fill-opacity:1;stroke:none;stroke-width:1px;stroke-linecap:butt;stroke-linejoin:miter;stroke-opacity:1;"
       x="108.9787"
       y="-50.25"
       id="text3409-9"
       sodipodi:linespacing="125%"
       transform="matrix(0,1,-1,0,0,0)"><tspan
         sodipodi:role="line"
         id="tspan3411-4"
         x="108.9787"
         y="-50.25"
         style="font-style:normal;font-variant:normal;font-weight:normal;font-stretch:normal;font-size:275px;font-family:EBI-Conceptual;-inkscape-font-specification:EBI-Conceptual;opacity:0.61000001;fill:#ffffff;">d</tspan></text>
    <text
       xml:space="preserve"
       style="font-style:normal;font-weight:normal;font-size:275px;line-height:125%;font-family:sans-serif;letter-spacing:0px;word-spacing:0px;opacity:0.07000002;fill:#000000;fill-opacity:1;stroke:none;stroke-width:1px;stroke-linecap:butt;stroke-linejoin:miter;stroke-opacity:1"
       x="127"
       y="87"
       id="text3499"
       sodipodi:linespacing="125%"><tspan
         sodipodi:role="line"
         id="tspan3501"
         x="127"
         y="87"
         style="font-style:normal;font-variant:normal;font-weight:normal;font-stretch:normal;font-size:90px;font-family:EBI-Functional;-inkscape-font-specification:EBI-Functional;fill:#ffffff">A</tspan></text>
  </g>
  <g
     inkscape:groupmode="layer"
     id="layer5"
     inkscape:label="io"
     transform="translate(1.0101526,-467.02033)"
     style="display:inline">
    <text
       xml:space="preserve"
       style="font-style:normal;font-weight:normal;font-size:40px;line-height:125%;font-family:EBI-Functional;letter-spacing:0px;word-spacing:0px;display:inline;opacity:0.98999999;fill:#000000;fill-opacity:1;stroke:none;stroke-width:1px;stroke-linecap:butt;stroke-linejoin:miter;stroke-opacity:1;-inkscape-font-specification:EBI-Functional;font-stretch:normal;font-variant:normal;"
       x="574.77679"
       y="308.41101"
       id="text4289"
       sodipodi:linespacing="125%"><tspan
         sodipodi:role="line"
         id="tspan4291"
         x="574.77679"
         y="308.41101" /></text>
  </g>
  <g
     inkscape:label="B"
     inkscape:groupmode="layer"
     id="layer1"
     transform="translate(1.0101526,-754.38233)"
     style="display:inline" />
  <g
     inkscape:groupmode="layer"
     id="layer3"
     inkscape:label="udies"
     style="display:inline"
     transform="translate(1.0101526,-467.02033)" />
  <g
     inkscape:groupmode="layer"
     id="layer4"
     inkscape:label="S"
     transform="translate(1.0101526,-467.02033)"
     style="display:inline">
    <g
       id="g3542"
       transform="translate(6.0815779,0)">
      <path
         sodipodi:nodetypes="ccccc"
         inkscape:connector-curvature="0"
         id="path4582"
         d="m 188.24018,550.06244 c -7.0523,3.6855 -13.80264,10.3093 -19.59941,17.23532 0.72915,1.17055 1.48162,2.63115 2.20943,3.82602 26.45414,-28.64199 40.65757,-17.69832 67.69654,16.62711 -10.10163,-17.35984 -26.19325,-49.72732 -50.30656,-37.68845 z"
         style="display:inline;fill:#ffffff;fill-opacity:1;fill-rule:evenodd;stroke:#ffffff;stroke-width:0.27583218px;stroke-linecap:butt;stroke-linejoin:round;stroke-opacity:1" />
      <path
         sodipodi:nodetypes="ccccc"
         inkscape:connector-curvature="0"
         id="path4576"
         d="m 236.42474,570.21708 c -25.75314,37.80243 -44.89735,42.16158 -67.79007,-2.90339 -1.66262,1.9586 -5.00475,6.16207 -4.63585,5.75302 9.4201,15.08779 22.72877,35.62432 38.41252,31.86302 17.87501,-7.3892 32.66507,-29.49901 34.0134,-34.71265 z"
         style="display:inline;fill:#ffffff;fill-opacity:1;fill-rule:evenodd;stroke:#ffffff;stroke-width:0.2816152px;stroke-linecap:butt;stroke-linejoin:round;stroke-opacity:1" />
      <path
         inkscape:connector-curvature="0"
         id="path4574"
         d="m 165.70232,575.30045 c -0.92195,-1.38583 -0.81062,-0.71981 -1.73741,-2.07877 -13.87367,17.03747 -22.61625,33.03544 -21.44247,31.06409 -1.3108,2.45326 7.90443,-13.55159 23.17988,-28.98532 z"
         style="display:inline;fill:#ffffff;fill-opacity:0.50196078;fill-rule:evenodd;stroke:#ffffff;stroke-width:0.3970674px;stroke-linecap:butt;stroke-linejoin:round;stroke-opacity:0.50196078" />
      <path
         inkscape:export-ydpi="90"
         inkscape:export-xdpi="90"
         inkscape:export-filename="C:\dev\FrontEndUI\webapp\src\main\webapp\assets\images\rect4570.png"
         sodipodi:nodetypes="cccc"
         inkscape:connector-curvature="0"
         id="path4358-9"
         d="m 163.80735,572.37632 0.45966,-0.71932 c -6.06549,-6.39096 -18.4785,-31.75659 -39.32977,-24.04613 16.11416,-5.46123 27.32994,7.84419 38.87011,24.76545 z"
         style="display:inline;fill:#ffffff;fill-opacity:0.50196078;fill-rule:evenodd;stroke:none;stroke-width:1px;stroke-linecap:butt;stroke-linejoin:round;stroke-opacity:1" />
      <path
         inkscape:export-ydpi="90"
         inkscape:export-xdpi="90"
         inkscape:export-filename="C:\dev\FrontEndUI\webapp\src\main\webapp\assets\images\rect4570.png"
         sodipodi:nodetypes="cccc"
         inkscape:connector-curvature="0"
         id="path4568"
         d="m 124.87358,547.69958 c 27.57109,-13.10655 43.05178,19.94118 43.33218,19.33128 -0.44752,0.46851 -0.1747,0.34895 -0.38989,0.49841 -11.54463,-19.10253 -26.46949,-27.33287 -42.94229,-19.82969 z"
         style="display:inline;fill:#ffffff;fill-opacity:0.50196078;fill-rule:evenodd;stroke:none;stroke-width:1px;stroke-linecap:butt;stroke-linejoin:miter;stroke-opacity:1" />
      <path
         sodipodi:nodetypes="cccc"
         inkscape:connector-curvature="0"
         id="path4440"
         d="m 144.1048,599.15073 c -2.64824,-15.75191 -3.90652,-32.56634 -6.57603,-50.89336 -4.6932,-1.37064 -7.6112,-0.8277 -7.6112,-0.8277 0.76789,-0.12774 5.14538,13.72407 14.18723,51.72106 z"
         style="display:inline;opacity:0.98999999;fill:#ffffff;fill-opacity:1;fill-rule:evenodd;stroke:none;stroke-width:1px;stroke-linecap:butt;stroke-linejoin:miter;stroke-opacity:1" />
      <path
         sodipodi:nodetypes="cc"
         inkscape:connector-curvature="0"
         id="path4197"
         d="m 149.77809,554.96428 c 1.4892,9.74576 1.78881,24.72767 3.11224,32.47583"
         style="display:inline;opacity:0.98999999;fill:none;fill-rule:evenodd;stroke:#ffffff;stroke-width:0.6806981;stroke-linecap:butt;stroke-linejoin:miter;stroke-miterlimit:4;stroke-dasharray:none;stroke-opacity:0.47058824" />
      <path
         sodipodi:nodetypes="cc"
         inkscape:connector-curvature="0"
         id="path4197-6"
         d="m 184.06923,558.79371 -4.25824,30.89673"
         style="display:inline;opacity:0.98999999;fill:none;fill-rule:evenodd;stroke:#ffffff;stroke-width:0.70529372;stroke-linecap:butt;stroke-linejoin:miter;stroke-miterlimit:4;stroke-dasharray:none;stroke-opacity:0.47058824" />
      <path
         sodipodi:nodetypes="cc"
         inkscape:connector-curvature="0"
         id="path4197-6-8"
         d="m 207.23617,554.635 -0.1919,45.68023"
         style="display:inline;opacity:0.98999999;fill:none;fill-rule:evenodd;stroke:#ffffff;stroke-width:0.70529372;stroke-linecap:butt;stroke-linejoin:miter;stroke-miterlimit:4;stroke-dasharray:none;stroke-opacity:0.47058824" />
      <path
         sodipodi:nodetypes="cc"
         inkscape:connector-curvature="0"
         id="path4197-6-1"
         d="m 215.99958,559.90763 3.27959,33.15059"
         style="display:inline;opacity:0.98999999;fill:none;fill-rule:evenodd;stroke:#ffffff;stroke-width:0.70529372;stroke-linecap:butt;stroke-linejoin:miter;stroke-miterlimit:4;stroke-dasharray:none;stroke-opacity:0.47058824" />
      <path
         sodipodi:nodetypes="cc"
         inkscape:connector-curvature="0"
         id="path4197-6-6"
         d="m 195.29983,554.22125 -4.84426,45.3306"
         style="display:inline;opacity:0.98999999;fill:none;fill-rule:evenodd;stroke:#ffffff;stroke-width:0.70529372;stroke-linecap:butt;stroke-linejoin:miter;stroke-miterlimit:4;stroke-dasharray:none;stroke-opacity:0.47058824" />
      <path
         sodipodi:nodetypes="sccccccscscscsccccccccccccccccsccsssss"
         inkscape:connector-curvature="0"
         id="path4378"
         d="m 88.034943,495.137 c -15.940253,-0.0812 -34.350391,42.59324 -31.693971,65.59507 4.57234,-36.96549 27.77836,-69.26919 42.133406,-51.94406 l 0.703084,-0.27875 c -20.071009,9.25421 -40.747794,38.7546 -42.922654,52.23303 23.12025,-52.12305 85.922492,-61.6029 45.400682,1.73086 30.7681,44.42522 -5.658308,55.95838 -45.314518,-1.68258 16.964197,50.10741 70.579368,68.90931 68.216488,26.51393 -0.38039,-6.82493 -8.50904,-17.56314 -16.69483,-27.12301 26.7222,-34.93441 25.20289,-50.90331 6.04515,-54.25307 -4.08892,-0.71497 -8.44185,0.0201 -12.85198,1.77218 -3.576257,-8.86939 -8.152022,-12.53881 -13.020857,-12.5636 z m -32.73826,8.63038 c -0.11094,0.0805 -0.08777,1.09509 0.268827,3.13832 0.684367,3.92121 -0.903351,17.79626 -3.698089,29.01228 5.995908,-20.24545 3.834485,-32.44462 3.429262,-32.1506 z m -3.429262,32.1506 c -1.077355,3.63772 -2.429047,7.54043 -4.090991,11.67235 0.01535,0.0176 0.0253,0.0176 0.04136,0.0247 1.508392,-2.83343 2.884875,-7.02209 4.049633,-11.69649 z m -4.049632,11.69649 c -0.07104,0.1339 -0.13861,0.29599 -0.210237,0.4232 0.06236,-0.15328 0.107394,-0.29459 0.168873,-0.44734 -0.112176,-0.0863 -0.226975,-0.17442 -0.303292,-0.17266 -0.02649,7e-4 -0.05041,-7.1e-4 -0.07238,0.0176 -2.920082,2.6444 18.889247,53.37603 20.144762,50.73623 -7.548686,-28.13238 -17.311413,-48.5434 -19.72774,-50.55721 z m 0.07927,-39.70396 c -0.214582,-0.1789 -0.161444,0.72765 0.386007,3.01445 1.649259,6.88906 4.891792,14.66462 -0.896089,36.01489 7.401719,-17.13448 1.439935,-38.25415 0.510082,-39.02934 z m 71.704331,4.32896 c 3.16734,0 5.73497,2.56363 5.73497,5.72605 -3e-5,3.16232 -2.56765,5.72601 -5.73497,5.72601 -3.16731,0 -5.73493,-2.56369 -5.73496,-5.72601 0,-3.16242 2.56763,-5.72605 5.73496,-5.72605 z"
         style="display:inline;fill:#ffffff;fill-opacity:1;fill-rule:evenodd;stroke:none;stroke-width:0.1;stroke-linecap:butt;stroke-linejoin:miter;stroke-miterlimit:4;stroke-dasharray:none;stroke-opacity:1" />
    </g>
    <g
       id="g3532"
       transform="translate(-25.923098,-36)">
      <ellipse
         ry="5.7217922"
         rx="5.303318"
         cy="682.92944"
         cx="208.01768"
         id="path4409-1"
         style="display:inline;opacity:0.97000002;fill:#ffffff;fill-opacity:1;fill-rule:nonzero;stroke:none;stroke-width:0.1;stroke-linejoin:round;stroke-miterlimit:4;stroke-dasharray:none;stroke-opacity:1" />
      <path
         d="m 116.37262,721.8327 -8.41366,0 0,41.77138 q 0,2.39776 0.73163,3.15493 0.73161,0.7572 3.04843,0.7572 l 4.6336,0 0,8.07664 -7.1943,0 q -9.633058,0 -9.633058,-9.9696 l 0,-43.79055 -5.365242,0 0,-7.44567 5.365242,0 0,-9.96959 8.413698,0 0,9.96959 8.41366,0 0,7.44567 z"
         style="font-style:normal;font-variant:normal;font-weight:300;font-stretch:normal;font-size:325px;line-height:125%;font-family:Teko;-inkscape-font-specification:'Teko Light';letter-spacing:0px;word-spacing:0px;fill:#ffffff;fill-opacity:1;stroke:none;stroke-width:1px;stroke-linecap:butt;stroke-linejoin:miter;stroke-opacity:1"
         id="path4243"
         inkscape:connector-curvature="0" />
      <path
         d="m 144.3287,714.38703 8.41369,0 0,61.20582 -8.41369,0 0,-4.16452 q -1.34131,4.16452 -6.70656,4.16452 l -4.8775,0 q -9.63306,0 -9.63306,-9.9696 l 0,-51.23622 8.41369,0 0,49.84804 q 0,2.52394 0.73162,3.28114 0.73164,0.63098 3.04843,0.63098 l 4.87751,0 q 2.19487,0 3.17037,-1.00957 0.9755,-1.00959 0.9755,-3.53354 l 0,-49.21705 z"
         style="font-style:normal;font-variant:normal;font-weight:300;font-stretch:normal;font-size:325px;line-height:125%;font-family:Teko;-inkscape-font-specification:'Teko Light';letter-spacing:0px;word-spacing:0px;fill:#ffffff;fill-opacity:1;stroke:none;stroke-width:1px;stroke-linecap:butt;stroke-linejoin:miter;stroke-opacity:1"
         id="path4245"
         inkscape:connector-curvature="0" />
      <path
         d="m 175.42084,768.14719 4.87751,0 q 2.19488,0 3.17037,-1.00957 0.97551,-1.00959 0.97551,-3.53354 l 0,-37.35447 q 0,-2.52395 -0.97551,-3.53353 -0.97549,-1.00957 -3.17037,-1.00957 l -4.87751,0 q -2.43873,0 -3.17036,0.75718 -0.60969,0.63098 -0.60969,3.15494 l 0,38.61644 q 0,2.52394 0.60969,3.28114 0.73163,0.63098 3.17036,0.63098 z m 9.02339,-76.9805 8.41367,0 0,84.42616 -8.41367,0 0,-4.16452 q -1.34133,4.16452 -6.70657,4.16452 l -4.87749,0 q -9.63307,0 -9.63307,-9.9696 l 0,-41.3928 q 0,-9.96962 9.63307,-9.96962 l 4.87749,0 q 5.36524,0 6.70657,4.16454 l 0,-27.25868 z"
         style="font-style:normal;font-variant:normal;font-weight:300;font-stretch:normal;font-size:325px;line-height:125%;font-family:Teko;-inkscape-font-specification:'Teko Light';letter-spacing:0px;word-spacing:0px;fill:#ffffff;fill-opacity:1;stroke:none;stroke-width:1px;stroke-linecap:butt;stroke-linejoin:miter;stroke-opacity:1"
         id="path4247"
         inkscape:connector-curvature="0" />
      <path
         d="m 212.26121,775.59285 -8.41369,0 0,-61.20582 8.41369,0 z"
         style="font-style:normal;font-variant:normal;font-weight:300;font-stretch:normal;font-size:325px;line-height:125%;font-family:Teko;-inkscape-font-specification:'Teko Light';letter-spacing:0px;word-spacing:0px;fill:#ffffff;fill-opacity:1;stroke:none;stroke-width:1px;stroke-linecap:butt;stroke-linejoin:miter;stroke-opacity:1"
         id="path4249"
         inkscape:connector-curvature="0"
         sodipodi:nodetypes="ccccc" />
      <path
         d="m 231.55208,740.50994 13.65701,0 0,-14.76511 q 0,-2.39778 -0.73163,-3.15495 -0.73164,-0.75718 -3.04845,-0.75718 l -6.09687,0 q -2.3168,0 -3.04843,0.75718 -0.73163,0.75717 -0.73163,3.15495 l 0,14.76511 z m 1.21939,-26.12291 11.21823,0 q 9.63307,0 9.63307,9.96962 l 0,23.59893 -22.07069,0 0,16.27949 q 0,2.52394 0.73163,3.28114 0.73163,0.63098 3.04843,0.63098 l 5.73108,0 q 2.43874,0 3.04842,-0.63098 0.73163,-0.7572 0.73163,-3.28114 l 0,-5.55269 8.41368,0 0,6.94087 q 0,9.9696 -9.63305,9.9696 l -10.85243,0 q -9.63306,0 -9.63306,-9.9696 l 0,-41.2666 q 0,-9.96962 9.63306,-9.96962 z"
         style="font-style:normal;font-variant:normal;font-weight:300;font-stretch:normal;font-size:325px;line-height:125%;font-family:Teko;-inkscape-font-specification:'Teko Light';letter-spacing:0px;word-spacing:0px;fill:#ffffff;fill-opacity:1;stroke:none;stroke-width:1px;stroke-linecap:butt;stroke-linejoin:miter;stroke-opacity:1"
         id="path4251"
         inkscape:connector-curvature="0" />
      <path
         d="m 281.55597,764.36127 0,-11.61017 q 0,-2.39776 -0.73163,-3.15494 -0.73162,-0.75718 -3.04843,-0.75718 l -5.97494,0 q -9.63304,0 -9.63304,-9.96961 l 0,-14.51272 q 0,-9.96962 9.63304,-9.96962 l 8.29175,0 q 9.63305,0 9.63305,9.96962 l 0,6.18366 -8.29174,0 0,-4.92168 q 0,-2.52396 -0.73162,-3.15494 -0.60969,-0.75718 -3.04844,-0.75718 l -3.41425,0 q -2.43875,0 -3.17036,0.75718 -0.60969,0.63098 -0.60969,3.15494 l 0,11.98875 q 0,2.39777 0.60969,3.15495 0.73161,0.75718 3.17036,0.75718 l 5.97494,0 q 9.63306,0 9.63306,9.96961 l 0,14.13413 q 0,9.9696 -9.63306,9.9696 l -8.1698,0 q -9.63307,0 -9.63307,-9.9696 l 0,-6.18369 8.29175,0 0,4.92171 q 0,2.39774 0.60968,3.15494 0.73164,0.75718 3.17038,0.75718 l 3.29231,0 q 2.31681,0 3.04843,-0.75718 0.73163,-0.7572 0.73163,-3.15494 z"
         style="font-style:normal;font-variant:normal;font-weight:300;font-stretch:normal;font-size:325px;line-height:125%;font-family:Teko;-inkscape-font-specification:'Teko Light';letter-spacing:0px;word-spacing:0px;fill:#ffffff;fill-opacity:1;stroke:none;stroke-width:1px;stroke-linecap:butt;stroke-linejoin:miter;stroke-opacity:1"
         id="path4253"
         inkscape:connector-curvature="0" />
      <path
         d="m 81.683036,764.54601 0,-38.53879 c 0,-1.68265 -0.243872,-2.7343 -0.73163,-3.15495 -0.487743,-0.50478 -1.503891,-0.75718 -3.048429,-0.75718 l -8.291745,0 c -6.422041,0 -9.633062,-3.32321 -9.633062,-9.96961 l 0,-37.36419 c 0,-6.64642 3.211021,-9.96961 9.633062,-9.96961 l 10.730488,0 c 6.422041,0 9.633061,3.32319 9.633061,9.96961 l 0,12.11498 -8.413689,0 0,-10.7268 c 0,-1.68265 -0.243871,-2.73429 -0.731613,-3.15494 -0.406462,-0.50479 -1.422611,-0.7572 -3.048445,-0.7572 l -5.609115,0 c -1.625834,0 -2.682631,0.25241 -3.170373,0.7572 -0.406463,0.42065 -0.609703,1.47229 -0.609703,3.15494 l 0,34.58784 c 0,1.59851 0.20324,2.65015 0.609703,3.15493 0.487742,0.50479 1.544539,0.75718 3.170373,0.75718 l 8.291744,0 c 6.422042,0 9.633062,3.3232 9.633062,9.96963 l 0,41.31512 c 0,6.64642 -3.21102,9.96961 -9.633062,9.96961 l -10.608561,0 c -6.42204,0 -9.633062,-3.32319 -9.633062,-9.96961 l 0,-12.11496 8.413691,0 0,10.7268 c 0,1.68263 0.203223,2.77634 0.609685,3.28114 0.487742,0.42064 1.544539,0.63098 3.170373,0.63098 l 5.487188,0 c 1.544538,0 2.560686,-0.21034 3.048429,-0.63098 0.487758,-0.5048 0.73163,-1.59851 0.73163,-3.28114 z"
         style="font-style:normal;font-variant:normal;font-weight:300;font-stretch:normal;font-size:325px;line-height:125%;font-family:Teko;-inkscape-font-specification:'Teko Light';letter-spacing:0px;word-spacing:0px;fill:#ffffff;fill-opacity:1;stroke:none;stroke-width:1px;stroke-linecap:butt;stroke-linejoin:miter;stroke-opacity:1"
         id="path4337"
         inkscape:connector-curvature="0"
         sodipodi:nodetypes="sscsssssssccscssssscsssssssccscsscs" />
    </g>
  </g>
</svg>
